<svg width="1108" height="280" xmlns="http://www.w3.org/2000/svg"><g fill="none" fill-rule="evenodd"><path fill="#2C3B4A" fill-rule="nonzero" d="M455.57 56.87v36.25h-47.25v138.75h-43V93.12h-47.25V56.87zm18.75 175V49.37h42v65.5c6-10 19.5-17 34.75-17 30 0 46 19.25 46 49.5v84.5h-42v-78c0-12-6.25-19.5-19-19.5-10.75 0-19.75 5-19.75 20v77.5h-42zM645.56 45.62c14 0 23.25 8.5 23.25 21.75s-9.25 21.75-23.25 21.75-23.25-8.5-23.25-21.75 9.25-21.75 23.25-21.75zm-21 186.25v-131h42v131h-42zm70.75 0v-131h40.25v15.25c6.75-12 19.75-18.25 36.5-18.25 30 0 46 19.25 46 49.5v84.5h-42v-78c0-12-6.25-19.5-19-19.5-10.75 0-19.75 5-19.75 20v77.5h-42zm273.75-4c0 28.5-26.75 50.5-65.5 50.5-32 0-59-15.75-63.5-42h40.76c3.25 7.25 12 10.75 22.75 10.75 14.75 0 23.5-8.5 23.5-20.5v-15.5c-6.25 7.5-19.75 14.25-34.25 14.25-36.25 0-54-26.5-54-54.75v-18c0-29 18-54.75 54.25-54.75 18 0 32 9.5 36 16.75v-13.75h40l-.01 127zm-65.5-96c-15.75 0-23.25 10-23.25 23.5v12.5c0 13.75 7.5 23.5 23 23.5 14.25 0 23.75-8.5 23.75-22.75v-14c0-15-11-22.75-23.5-22.75zm145.26 103c-34.75 0-57.75-15.5-57.75-42v-2.75h37v1.75c0 9.25 8.5 14 21 14 11.25 0 19.75-4 19.75-11.5 0-4.75-2.25-7.5-8.75-9l-36.25-8.25c-20.25-4.5-30.75-16.75-30.75-35.25 0-28.25 22.5-44 54.25-44 31 0 53.25 16 53.25 42.25v2.25h-36.25v-2.25c0-8-4.75-13.25-16.5-13.25-10.75 0-15.75 3.5-15.75 10.75 0 5 2.5 7.5 8.25 8.75l38.25 9.25c17.75 4.25 28.75 15.5 28.75 33.5-.01 26.25-23.5 45.75-58.5 45.75z"/><path fill="#FFF" fill-rule="nonzero" d="M17.06 38.47h202v219h-202z"/><path d="M234.47 157.95v7.25c0 .45-.09.9-.15 1.38l-6.07 77h-.05a51 51 0 0 1-1.21 8.33c-1.59 6.65-3.31 11-9.68 16.87-7.88 7.27-19.54 9.73-26.4 10.24-5.91.45-48.91.41-48.91.41H92.82s-43 0-48.9-.41c-6.85-.51-18.52-3-26.4-10.24-6.36-5.86-8.08-10.22-9.67-16.87a55.46 55.46 0 0 1-1.31-11.04L.16 165.39v-1.75a.49.49 0 0 0 0-.12v-7.43c-.06-6-.06-12.36.05-15.84.16-5.24.29-15.43.52-22.65.23-7.22 1.08-38.13 1.35-46.92S3 40.55 3.51 32.55a33.19 33.19 0 0 1 11-21.75C21.3 4.96 32.43 1.23 41.36.67c8.57-.53 20.9-.6 27.23-.6h97.23c6.33 0 18.65.07 27.22.6 8.94.56 20.07 4.29 26.85 10.13a33.21 33.21 0 0 1 11 21.75c.51 8 1.15 29.34 1.43 38.13.28 8.79 1.11 39.7 1.34 46.92.23 7.22.37 17.41.53 22.65.15 3.74.35 11.16.28 17.7zM52.21 181.8c3.42.28 11.78 1.19 17.1 3.75 5.05 2.43 7.72 5.69 8.55 8.1 1.28 3.69 1.33 21.52 1.5 25.43.13 2.94.32 13 .45 15.67.38 7.72.32 8.93 3.83 11.18 3.91 2.51 9.82 2.63 11.55 2.7 1.73.07 17.85 0 17.85 0h8.62s16.44.08 19.35-.08 7.88-1.27 9.9-2.55a7.45 7.45 0 0 0 3.53-4.35c.28-1.41.83-24.2 1.05-30.07.3-8.09.66-15.38.75-15.9a10.43 10.43 0 0 1 3.07-5.55 24.22 24.22 0 0 1 9.38-5.48 77.47 77.47 0 0 1 14.17-2.7c3.12-.28 8.64-.67 11.93-.67 2.91 0 9.89-2 13.48-4.93-.69-34.11-2.28-108.36-2.61-121.45-.12-4.91-4.81-8.28-9.67-8.28l-157.35-.08c-4.84 0-9.63 3.15-9.75 8.29-.3 12.8-1.88 87.43-2.59 121.54 3.6 2.94 10.56 5 13.46 5 1.32-.02 7.92.06 12.45.43z" fill="#2274E5"/><path d="M150.91 246c-2 1.28-7 2.4-9.9 2.55-2.9.15-19.35.08-19.35.08h-8.62s-16.12.07-17.85 0c-1.73-.07-7.64-.19-11.55-2.7-3.51-2.25-3.45-3.46-3.83-11.18-.13-2.63-.32-12.73-.45-15.67-.1-2.42-.16-10.15-.5-16.58h77c-.12 2.63-.25 5.79-.37 9.08-.22 5.87-.77 28.66-1.05 30.07a7.45 7.45 0 0 1-3.53 4.35z" fill="#BEC2C8"/><path d="M117.48 161.23c-.74 0-2.39-1.3-3.21-2.09-.82-.79-9.45-8.95-17.85-16.67-10.41-9.44-18.73-17.25-19.83-18.33-1.1-1.08-.75-1.47-.51-1.71.83-.88 9.3-8.47 10-8.92.19-.14.64 0 1.18.45.06 0 5.42 4.1 11.14 8.54 11 8.49 13.8 10.94 13.8 10.94s3.62-4.79 31.48-30.12c18.78-17.07 29.33-25.41 30.61-26.26a2.18 2.18 0 0 1 1-.38.73.73 0 0 1 .58.33s-.26-.3 0 0 5.25 6.75 5.62 7.43c.34.6.28.65 0 .92a426.22 426.22 0 0 0-30 32.92c-21 25.72-30.51 39.45-31.53 40.8 0 0 1.08-1.49 0 0s-1.85 2.15-2.48 2.15z" fill="#2C3B4A" fill-rule="nonzero"/></g></svg>